<svg id="Layer_1" data-name="Layer 1" xmlns="http://www.w3.org/2000/svg" viewBox="0 0 511 510"><defs><style>.cls-1{fill:#fff;}</style></defs><title>caffe-bar-and-restaurant-trg-pretraga</title><path class="cls-1" d="M497,511c-4.42-3-8-6.87-11.74-10.6Q413.13,428.4,341,356.3c-3.11-3.12-4.73-3-7.89-.25A195.29,195.29,0,0,1,240.67,401c-41.92,8-82.63,3.48-121.7-14.31a200.32,200.32,0,0,1-83.66-70.11A197.54,197.54,0,0,1,.79,220.38c-3.44-39.75,4.35-77.19,23.08-112.29A203.28,203.28,0,0,1,179.4,2.32,198.73,198.73,0,0,1,285.34,19c34.4,15.6,62.49,38.95,83.72,70.06,23.81,34.89,36,73.57,35.29,116-.82,49-17.41,92-49.23,129.15-2.56,3-1.9,4.33.51,6.73Q430,415,504.26,489.16a31.4,31.4,0,0,1,6.74,8.89v6a24.88,24.88,0,0,1-8,7ZM202.32,383.49c99.46-.14,181-81.11,180.81-180.45a180.24,180.24,0,0,0-181-180.6C102,22.51,21.57,102.29,21.42,202.73,21.26,302.92,101.84,382.81,202.32,383.49Z" transform="translate(0 -1)"/><path class="cls-1" d="M503,511a24.88,24.88,0,0,0,8-7C511,511,511,511,503,511Z" transform="translate(0 -1)"/></svg>