<svg id="Layer_1" data-name="Layer 1" xmlns="http://www.w3.org/2000/svg" viewBox="0 0 276.21 512"><defs><style>.cls-1{fill:#fff;}</style></defs><title>caffe-bar-and-restaurant-trg-facebook</title><path class="cls-1" d="M304.07,397.42q0,48.16,0,96.32c0,2.91-.07,5.83-.27,8.74-.37,5.45-3,9-8.65,9.81a53.15,53.15,0,0,1-7.44.67q-38.15.06-76.3,0c-12.26,0-15.41-3.24-15.41-15.68,0-66.71-.11-133.42.15-200.13,0-6.26-1.77-7.42-7.58-7.3-18.12.4-36.27.2-54.4.13-12.1-.05-15.14-3.06-15.19-15.23q-.13-36.9,0-73.8c0-12.51,3.1-15.46,15.55-15.48,18.56,0,37.11-.16,55.66.1,4.51.07,6-.8,5.93-5.7-.29-19.59-.59-39.21.09-58.78,1.29-36.6,12.5-69.15,41.63-93.36C258.06,10.91,282,2.78,308,1.64c25-1.09,50-.46,75-.42,8.35,0,12,3.55,12,11.76q.21,37.21,0,74.42c0,8.75-3.5,12-13,12.23-16.88.38-33.77.4-50.65.65-19.07.29-26.92,7.84-27.29,27-.33,17.3.06,34.61-.2,51.9-.07,4.33,1.46,5.09,5.36,5.06,22.3-.17,44.61-.12,66.91-.07,13.12,0,16.34,3.22,16.36,16.17q0,37.22,0,74.42c0,11.55-2.83,14.42-14.41,14.46-22.09.09-44.19.25-66.28-.1-6-.1-8,.94-8,7.61C304.29,330.3,304.07,363.86,304.07,397.42Z" transform="translate(-118.9 -1)"/></svg>