<svg id="Layer_1" data-name="Layer 1" xmlns="http://www.w3.org/2000/svg" viewBox="0 0 303.3 512"><defs><style>.cls-1{fill:#fff;}</style></defs><title>caffe-bar-and-restaurant-trg-korpa</title><path class="cls-1" d="M134.77,513c-3.73-2.54-8-3.28-11.58-6.27-12-10-18.55-24.26-17.78-43.2,1-24.26,2.69-48.48,4.15-72.71q2.79-46.54,5.69-93.09,3.25-53.28,6.5-106.54,1.95-32.12,3.91-64.23c.67-10.94,6-17.5,14.3-17.55,12-.08,24-.1,36,0,2.36,0,3.09-.65,3.13-4,.66-52.12,26.17-92.62,64.54-102.67,40.59-10.63,82.63,27.9,89.93,82.38a116.33,116.33,0,0,1,1.4,20.34c-.15,3.53.9,4,3.18,4,11.62-.13,23.24-.07,34.86-.06,9.66,0,14.65,6,15.43,18.64q4.14,67.46,8.21,134.92,4.69,76.92,9.44,153.83c.89,14.44,1.86,28.87,2.49,43.33,1.19,27.41-9.63,46.19-29.7,52.11-.15,0-.23.51-.34.78Zm122-35.81q57.56,0,115.1,0c6.83,0,10.63-5.4,10.1-14q-4.69-76.15-9.34-152.33-4.95-81.15-9.78-162.31c-.17-2.85-.81-3.54-2.84-3.5-6.88.16-13.76.35-20.62-.06-3.49-.2-4.54.79-4.5,5.78.22,27.32.14,54.64.09,82,0,11.69-6.47,19.61-14.9,18.54-7.06-.9-11.91-8.54-11.93-19.08,0-27.15-.09-54.3.06-81.45,0-4.3-.55-5.78-4.13-5.76q-46.86.34-93.73,0c-3.81,0-4.63,1.23-4.59,6.17.2,27,.12,54,.08,81,0,10.38-4.67,18-11.51,19.1-8.6,1.41-15.3-6.52-15.32-18.4-.05-27.82,0-55.64,0-83.46,0-1.85.88-4.39-2.05-4.31-7.87.21-15.75.13-23.62,0-1.71,0-2,.89-2.12,2.91-.4,8-1,15.93-1.44,23.89q-2.76,45.81-5.52,91.61Q141,316.26,137.79,369c-1.87,30.7-3.63,61.41-5.57,92.11-.71,11.15,2.47,16.05,11,16.05Zm.26-367.8h42.69c9.26,0,9.26,0,8.16-12.31-3.25-36.5-27-62.13-55.41-59.91-25.6,2-46.54,32.59-46.67,68,0,3.54.7,4.36,3.29,4.33C225.09,109.3,241.07,109.39,257.05,109.39Z" transform="translate(-105.35 -1)"/></svg>