<svg id="Layer_1" data-name="Layer 1" xmlns="http://www.w3.org/2000/svg" viewBox="0 0 512 512"><defs><style>.cls-1{fill:#fff;}</style></defs><title>caffe-bar-and-restaurant-trg-instagram</title><path class="cls-1" d="M388.07,513H124.21c-1.51-2-3.86-1.56-5.83-1.83a110.79,110.79,0,0,1-32.95-9.42C31.32,476.17,2.25,433.34,1.5,373.4c-1-77.61-.26-155.24-.21-232.86,0-19.36,3.21-38.27,11.52-55.76C38.72,30.3,82.16,1.87,142.49,1.35c76.44-.67,152.89-.17,229.33-.16,12.2,0,24.33.94,36.1,4.23q78.51,22,100.86,100.55c1.9,6.64,1.75,13.67,4.22,20.17V389c-2.67,5.76-2.31,12.17-4,18.17Q487.08,486,408.61,508.66C401.84,510.61,394.69,510.49,388.07,513ZM483,257.08q0-57.21,0-114.44a114.09,114.09,0,0,0-2.4-25.31c-11.52-51.14-54.54-85.93-107-86.08-77.61-.22-155.23-.07-232.84-.05a104.81,104.81,0,0,0-35.29,5.69c-46.12,16.37-74.22,56-74.25,105q-.09,115.2,0,230.39a114.53,114.53,0,0,0,2.32,24.32c11,50.76,54.46,86.14,106.78,86.32,77.78.26,155.56.09,233.34.06,15.66,0,30.88-2.74,45-9.62,42.17-20.53,63.69-54.54,64.24-101.36C483.37,333.71,483,295.4,483,257.08Z" transform="translate(-1 -1)"/><path class="cls-1" d="M257.13,117.15c77,0,140.21,63.36,139.92,140.18C396.76,334.3,334,397,257.15,397c-77,0-140.22-63.35-139.93-140.18S180.32,117.17,257.13,117.15ZM367,257.12c0-60.39-49.47-109.92-109.88-110s-109.9,49.48-109.93,109.9S196.7,367,257.11,367,367,317.55,367,257.12Z" transform="translate(-1 -1)"/><path class="cls-1" d="M359.09,108.93C359,86.48,377.71,67.6,400.28,67.41c22.28-.19,41.26,18.67,41.52,41.24.25,22.26-18.71,41.33-41.24,41.48S359.2,131.52,359.09,108.93Zm41.12-11.4c-6.13.15-11.38,5.72-11.06,11.73a11.28,11.28,0,1,0,11.06-11.73Z" transform="translate(-1 -1)"/></svg>