<svg id="Layer_1" data-name="Layer 1" xmlns="http://www.w3.org/2000/svg" viewBox="0 0 512 419.77"><defs><style>.cls-1{fill:#fff;}</style></defs><title>caffe-bar-and-restaurant-trg-twitter</title><path class="cls-1" d="M0,419.62c56,3.08,107-9.73,153-45.13-23.25-1.15-43.29-8-60.87-21.28a106.25,106.25,0,0,1-37.41-52.12,126.86,126.86,0,0,0,46.15-1.77c-51.8-16-79.41-50.55-83.52-105.43,15.47,7.24,30.23,12.57,47.82,12.68-12.34-9.3-21.88-19.4-29.4-31.31C14.39,141.39,13,106.57,30.48,70.65,33,65.56,34.16,66.3,37.29,70,71.44,110,113,139.56,162.46,157.88a286.25,286.25,0,0,0,82.69,17.46c4,.25,5.46-.1,4.59-4.83-8.28-44.61,13.79-90.1,54-111.8,40-21.6,90.11-15,123,16.5,3.42,3.28,6.21,4.25,10.92,3,18.93-4.92,37.15-11.52,54.37-20.82,1.54-.83,2.87-2.5,5.67-1.73C489.9,79,475.56,97.05,455.44,111.15c9.7-.16,18.85-2.68,28-5.08s18.12-6,28.53-9.89a181.8,181.8,0,0,1-30.34,36.66,225.52,225.52,0,0,1-18.22,15.47c-3.21,2.43-4.14,4.8-4.17,8.8-.78,114.44-47.22,204.83-144.17,266.78-52.85,33.76-112.26,44.93-174.54,41.36C89.83,462.34,43.07,447,0,419.62Z" transform="translate(0 -46.11)"/></svg>